<?xml version="1.0" encoding="UTF-8"?>
<svg xmlns="http://www.w3.org/2000/svg" xmlns:xlink="http://www.w3.org/1999/xlink" width="375pt" height="374.999991pt" viewBox="0 0 375 374.999991" version="1.2">
<defs>
<clipPath id="clip1">
  <path d="M 19 154 L 70 154 L 70 236.851562 L 19 236.851562 Z M 19 154 "/>
</clipPath>
<clipPath id="clip2">
  <path d="M 0 154 L 51 154 L 51 236.851562 L 0 236.851562 Z M 0 154 "/>
</clipPath>
<clipPath id="clip3">
  <path d="M 121 155 L 172 155 L 172 236.851562 L 121 236.851562 Z M 121 155 "/>
</clipPath>
<clipPath id="clip4">
  <path d="M 102 155 L 153 155 L 153 236.851562 L 102 236.851562 Z M 102 155 "/>
</clipPath>
<clipPath id="clip5">
  <path d="M 324 154 L 375 154 L 375 236.851562 L 324 236.851562 Z M 324 154 "/>
</clipPath>
<clipPath id="clip6">
  <path d="M 305 154 L 356 154 L 356 236.851562 L 305 236.851562 Z M 305 154 "/>
</clipPath>
<clipPath id="clip7">
  <path d="M 24.304688 151 L 331 151 L 331 344.308594 L 24.304688 344.308594 Z M 24.304688 151 "/>
</clipPath>
<clipPath id="clip8">
  <path d="M 120 28.792969 L 348.878906 28.792969 L 348.878906 344.308594 L 120 344.308594 Z M 120 28.792969 "/>
</clipPath>
<clipPath id="clip9">
  <path d="M 24.304688 28.792969 L 228 28.792969 L 228 292 L 24.304688 292 Z M 24.304688 28.792969 "/>
</clipPath>
</defs>
<g id="surface1">
<path style=" stroke:none;fill-rule:nonzero;fill:rgb(58.428955%,85.879517%,84.309387%);fill-opacity:1;" d="M 86.34375 158.648438 L 43.308594 233.355469 L 129.375 233.355469 Z M 86.34375 173.101562 L 116.886719 226.125 L 55.796875 226.125 L 86.34375 173.101562 "/>
<g clip-path="url(#clip1)" clip-rule="nonzero">
<path style=" stroke:none;fill-rule:nonzero;fill:rgb(58.428955%,85.879517%,84.309387%);fill-opacity:1;" d="M 23.28125 236.023438 C 22.667969 236.023438 22.050781 235.867188 21.484375 235.539062 C 19.757812 234.542969 19.167969 232.332031 20.160156 230.605469 L 63.195312 155.902344 C 64.191406 154.175781 66.394531 153.585938 68.125 154.582031 C 69.847656 155.578125 70.4375 157.789062 69.441406 159.515625 L 26.40625 234.21875 C 25.742188 235.375 24.527344 236.023438 23.28125 236.023438 "/>
</g>
<g clip-path="url(#clip2)" clip-rule="nonzero">
<path style=" stroke:none;fill-rule:nonzero;fill:rgb(58.428955%,85.879517%,84.309387%);fill-opacity:1;" d="M 4.121094 236.023438 C 3.511719 236.023438 2.890625 235.867188 2.324219 235.539062 C 0.597656 234.542969 0.0078125 232.332031 1.003906 230.605469 L 44.039062 155.902344 C 45.035156 154.175781 47.238281 153.585938 48.964844 154.582031 C 50.6875 155.578125 51.28125 157.789062 50.285156 159.515625 L 7.25 234.21875 C 6.582031 235.375 5.371094 236.023438 4.121094 236.023438 "/>
</g>
<path style=" stroke:none;fill-rule:nonzero;fill:rgb(58.428955%,85.879517%,84.309387%);fill-opacity:1;" d="M 231.214844 157.707031 L 145.140625 157.707031 L 188.179688 232.414062 Z M 218.726562 164.933594 L 188.179688 217.960938 L 157.628906 164.933594 L 218.726562 164.933594 "/>
<g clip-path="url(#clip3)" clip-rule="nonzero">
<path style=" stroke:none;fill-rule:nonzero;fill:rgb(58.428955%,85.879517%,84.309387%);fill-opacity:1;" d="M 168.160156 236.964844 C 166.910156 236.964844 165.699219 236.320312 165.03125 235.160156 L 122 160.453125 C 121.003906 158.722656 121.59375 156.515625 123.316406 155.515625 C 125.046875 154.527344 127.25 155.113281 128.246094 156.839844 L 171.277344 231.546875 C 172.273438 233.277344 171.683594 235.484375 169.957031 236.484375 C 169.390625 236.808594 168.773438 236.964844 168.160156 236.964844 "/>
</g>
<g clip-path="url(#clip4)" clip-rule="nonzero">
<path style=" stroke:none;fill-rule:nonzero;fill:rgb(58.428955%,85.879517%,84.309387%);fill-opacity:1;" d="M 149.003906 236.964844 C 147.753906 236.964844 146.542969 236.320312 145.875 235.160156 L 102.839844 160.453125 C 101.84375 158.722656 102.4375 156.515625 104.160156 155.515625 C 105.890625 154.527344 108.089844 155.113281 109.085938 156.839844 L 152.121094 231.546875 C 153.117188 233.277344 152.527344 235.484375 150.800781 236.484375 C 150.230469 236.808594 149.613281 236.964844 149.003906 236.964844 "/>
</g>
<path style=" stroke:none;fill-rule:nonzero;fill:rgb(58.428955%,85.879517%,84.309387%);fill-opacity:1;" d="M 289.074219 157.941406 L 246.042969 232.648438 L 332.109375 232.648438 Z M 289.074219 172.394531 L 319.621094 225.421875 L 258.53125 225.421875 L 289.074219 172.394531 "/>
<path style=" stroke:none;fill-rule:nonzero;fill:rgb(58.428955%,85.879517%,84.309387%);fill-opacity:1;" d="M 226.015625 235.320312 C 225.402344 235.320312 224.785156 235.164062 224.214844 234.835938 C 222.488281 233.839844 221.898438 231.628906 222.894531 229.902344 L 265.929688 155.195312 C 266.925781 153.46875 269.128906 152.878906 270.855469 153.871094 C 272.578125 154.871094 273.171875 157.082031 272.175781 158.808594 L 229.140625 233.515625 C 228.472656 234.671875 227.257812 235.320312 226.015625 235.320312 "/>
<path style=" stroke:none;fill-rule:nonzero;fill:rgb(58.428955%,85.879517%,84.309387%);fill-opacity:1;" d="M 206.855469 235.320312 C 206.246094 235.320312 205.628906 235.164062 205.058594 234.835938 C 203.332031 233.839844 202.742188 231.628906 203.738281 229.902344 L 246.773438 155.195312 C 247.769531 153.46875 249.96875 152.878906 251.699219 153.871094 C 253.421875 154.871094 254.015625 157.082031 253.019531 158.808594 L 209.980469 233.515625 C 209.316406 234.671875 208.101562 235.320312 206.855469 235.320312 "/>
<g clip-path="url(#clip5)" clip-rule="nonzero">
<path style=" stroke:none;fill-rule:nonzero;fill:rgb(58.428955%,85.879517%,84.309387%);fill-opacity:1;" d="M 370.894531 236.261719 C 369.644531 236.261719 368.433594 235.613281 367.765625 234.457031 L 324.730469 159.75 C 323.734375 158.019531 324.328125 155.8125 326.050781 154.8125 C 327.78125 153.816406 329.984375 154.410156 330.976562 156.136719 L 374.011719 230.839844 C 375.007812 232.570312 374.414062 234.777344 372.691406 235.777344 C 372.125 236.105469 371.503906 236.261719 370.894531 236.261719 "/>
</g>
<g clip-path="url(#clip6)" clip-rule="nonzero">
<path style=" stroke:none;fill-rule:nonzero;fill:rgb(58.428955%,85.879517%,84.309387%);fill-opacity:1;" d="M 351.738281 236.261719 C 350.488281 236.261719 349.277344 235.613281 348.609375 234.457031 L 305.574219 159.75 C 304.578125 158.019531 305.171875 155.8125 306.894531 154.8125 C 308.625 153.816406 310.828125 154.410156 311.820312 156.136719 L 354.851562 230.839844 C 355.847656 232.570312 355.257812 234.777344 353.535156 235.777344 C 352.964844 236.105469 352.34375 236.261719 351.738281 236.261719 "/>
</g>
<g clip-path="url(#clip7)" clip-rule="nonzero">
<path style=" stroke:none;fill-rule:nonzero;fill:rgb(9.01947%,29.40979%,65.879822%);fill-opacity:1;" d="M 190.371094 231.617188 L 227.988281 291.722656 L 24.851562 291.722656 L 76.558594 344.308594 L 330.824219 344.308594 L 225.609375 151.496094 Z M 190.371094 231.617188 "/>
</g>
<g clip-path="url(#clip8)" clip-rule="nonzero">
<path style=" stroke:none;fill-rule:nonzero;fill:rgb(8.628845%,56.469727%,83.529663%);fill-opacity:1;" d="M 348.359375 282.960938 L 216.84375 28.792969 L 120.394531 230.375 L 190.539062 230.375 L 225.609375 151.496094 L 330.824219 344.308594 Z M 348.359375 282.960938 "/>
</g>
<g clip-path="url(#clip9)" clip-rule="nonzero">
<path style=" stroke:none;fill-rule:nonzero;fill:rgb(18.03894%,81.568909%,100%);fill-opacity:1;" d="M 216.84375 28.792969 L 155.46875 28.792969 L 24.851562 291.785156 L 227.988281 291.785156 L 190.539062 230.375 L 120.90625 229.867188 Z M 216.84375 28.792969 "/>
</g>
</g>
</svg>
